Coordinates
version=1
nRows=15
nColumns=34
inDegrees=yes

Units are S.I. units (second, meters, Newtons, ...)
If the header above contains a line with 'inDegrees', this indicates whether rotational values are in degrees (yes) or radians (no).

endheader
time	pelvis_tilt	pelvis_list	pelvis_rotation	pelvis_tx	pelvis_ty	pelvis_tz	hip_flexion_r	hip_adduction_r	hip_rotation_r	knee_angle_r	ankle_angle_r	subtalar_angle_r	mtp_angle_r	hip_flexion_l	hip_adduction_l	hip_rotation_l	knee_angle_l	ankle_angle_l	subtalar_angle_l	mtp_angle_l	lumbar_extension	lumbar_bending	lumbar_rotation	arm_flex_r	arm_add_r	arm_rot_r	elbow_flex_r	pro_sup_r	arm_flex_l	arm_add_l	arm_rot_l	elbow_flex_l	pro_sup_l
      5.73333330	     -9.95589611	     -1.00613143	      0.07556057	     -0.01218010	      1.17228754	     -0.11951498	     12.42597856	      1.91421612	     -1.73613237	     13.81703019	     10.98872850	    -11.18034928	      0.00000000	     13.48492629	      1.07506182	     -1.53061972	     14.40514416	      8.06629604	     -7.82753989	      0.00000000	     -8.69237164	     -1.70696544	     -2.00807762	     -1.46207590	     -6.88724366	      7.48845193	     32.94951495	     76.31094807	      0.99959071	    -11.14879352	     15.99772432	     29.73426174	     83.74407237
      5.75000000	     -9.94758884	     -0.99873445	      0.16726652	     -0.01150668	      1.17235945	     -0.11940157	     12.36358569	      1.92150186	     -1.73573428	     13.74689988	     10.99913368	    -11.17568518	      0.00000000	     13.47000913	      1.07977899	     -1.50794285	     14.34101376	      8.07638867	     -7.81995022	      0.00000000	     -8.55358077	     -1.73079155	     -1.92536049	     -1.32355156	     -6.81158377	      7.50027923	     33.03155052	     76.31401206	      1.04047281	    -11.16565664	     15.98529143	     29.75885273	     83.75416927
      5.76666670	     -9.95979896	     -0.97426926	      0.22259481	     -0.01243281	      1.17311605	     -0.11952550	     12.29597320	      1.89584775	     -1.77078494	     13.59153587	     11.01044612	    -11.17807220	      0.00000000	     13.42198930	      1.11517569	     -1.46301632	     14.21931710	      8.07819493	     -7.79177956	      0.00000000	     -8.34357875	     -1.70959259	     -1.82536101	     -1.14183593	     -6.69682010	      7.52600681	     33.15839841	     76.32042944	      1.11455863	    -11.20352357	     15.96348632	     29.79795974	     83.76593676
      5.78333330	     -9.98371474	     -0.95815449	      0.33652237	     -0.01303008	      1.17323407	     -0.11994207	     12.24089877	      1.86491699	     -1.78145765	     13.40467876	     11.00947087	    -11.16150650	      0.00000000	     13.39831668	      1.15831802	     -1.40205901	     14.03317919	      8.07087851	     -7.75096524	      0.00000000	     -8.16812786	     -1.70793944	     -1.74463562	     -1.00024185	     -6.59401342	      7.55995712	     33.29278083	     76.32922711	      1.17168216	    -11.23251314	     15.94373487	     29.83629475	     83.77872625
      5.80000000	    -10.08322871	     -0.89854016	      0.54201494	     -0.01277669	      1.17451722	     -0.11954694	     12.02261414	      1.79374265	     -1.93573858	     12.80013962	     10.78301777	    -10.98524036	      0.00000000	     13.21961415	      1.27705265	     -1.14392613	     13.40325446	      7.78653538	     -7.52154695	      0.00000000	     -7.83211965	     -1.83141086	     -1.80101475	     -1.21267831	     -6.48286545	      7.74546279	     33.75020944	     76.38270594	      1.13992553	    -11.33222168	     15.87987393	     29.93124623	     83.86444253
      5.81666670	     -9.98409952	     -0.88156024	      0.72212759	     -0.01322826	      1.17445767	     -0.12005817	     11.86029562	      1.72705145	     -2.33604079	     12.63900124	     10.51509516	    -10.83859531	      0.00000000	     13.05435696	      1.33766554	     -1.05387444	     13.04926257	      7.44451567	     -7.46479118	      0.00000000	     -7.92768017	     -1.73236807	     -1.84390817	     -1.19100605	     -6.53758405	      8.07635702	     34.57081137	     76.49295927	      1.19940103	    -11.37352721	     15.75690287	     30.11296690	     84.03804879
      5.83333330	     -9.95745503	     -0.89395936	      0.84419232	     -0.01340651	      1.17445153	     -0.12086538	     11.83256586	      1.72295688	     -2.32418421	     12.61407840	     10.53271096	    -10.83476098	      0.00000000	     13.09021733	      1.35351170	     -1.06275790	     12.97445281	      7.46496752	     -7.47946698	      0.00000000	     -7.87637965	     -1.72152181	     -1.77464163	     -1.06624887	     -6.49357613	      8.09337724	     34.64206812	     76.49868948	      1.21399772	    -11.37672013	     15.74800321	     30.12444366	     84.04462387
      5.85000000	     -9.93929579	     -0.88933354	      0.93430825	     -0.01284578	      1.17472695	     -0.12042766	     11.78114928	      1.72311144	     -2.35074250	     12.56832287	     10.53995115	    -10.83692659	      0.00000000	     13.10757917	      1.37813249	     -1.04036544	     12.85289418	      7.47749898	     -7.47614946	      0.00000000	     -7.77415118	     -1.67688445	     -1.70899340	     -0.90000246	     -6.40226700	      8.12973312	     34.75825088	     76.50921795	      1.28189493	    -11.38203332	     15.72972034	     30.15237472	     84.05398101
      5.86666670	     -9.69632980	     -0.90307908	      1.18595357	     -0.01303367	      1.17257849	     -0.12088523	     11.39661836	      1.67642176	     -2.77065879	     12.35575284	     10.65559363	    -10.64992700	      0.00000000	     12.79690441	      1.44458336	     -0.65612568	     12.60892850	      7.44238412	     -7.46006971	      0.00000000	     -8.07609257	     -1.59048985	     -2.03465588	     -1.04704211	     -6.65157323	      9.01454453	     36.24677204	     76.82140743	      1.30392634	    -11.34949133	     15.33622935	     30.18607979	     84.40415038
      5.88333330	     -9.67634252	     -0.90240779	      1.27558226	     -0.01365495	      1.17356271	     -0.12081174	     11.33858900	      1.63541923	     -2.74752993	     12.39082300	     10.66720907	    -10.64725449	      0.00000000	     12.80416502	      1.45576212	     -0.65325823	     12.58448225	      7.44385882	     -7.45629430	      0.00000000	     -7.99287403	     -1.55548897	     -1.98125208	     -0.98528896	     -6.62249510	      9.02879354	     36.27610301	     76.82651591	      1.30545180	    -11.36758219	     15.32321323	     30.19026955	     84.40957931
      5.90000000	     -9.64906318	     -0.87602429	      1.36686704	     -0.01291052	      1.17406841	     -0.12117320	     11.26206222	      1.56235958	     -2.70370637	     12.40562783	     10.70619757	    -10.64704112	      0.00000000	     12.78161640	      1.50092032	     -0.62813068	     12.57430760	      7.44691475	     -7.44006922	      0.00000000	     -7.85677533	     -1.50895968	     -1.93626078	     -0.92587732	     -6.58186695	      9.05129553	     36.31754940	     76.83395878	      1.31384463	    -11.38078837	     15.30674655	     30.19613280	     84.41629483
      5.91666670	     -9.65141208	     -0.76552456	      1.47569578	     -0.01251484	      1.17344832	     -0.12128549	     11.09571438	      1.41898065	     -2.55579215	     12.22098700	     11.04752725	    -10.67393038	      0.00000000	     12.63295063	      1.65995346	     -0.40123456	     12.32385279	      7.49032241	     -7.31939096	      0.00000000	     -7.50516716	     -1.63323579	     -1.99446895	     -1.05516920	     -6.54819754	      9.20198930	     36.41927683	     76.88684898	      1.21236436	    -11.36232889	     15.22967743	     30.13780779	     84.46767301
      5.93333330	     -9.61021793	     -0.75434579	      1.53960432	     -0.01401576	      1.17353531	     -0.12139323	     11.09325347	      1.37322599	     -2.53422386	     12.21795823	     11.06562215	    -10.66805109	      0.00000000	     12.62425772	      1.69014029	     -0.40968523	     12.30212320	      7.49537712	     -7.32045681	      0.00000000	     -7.44735380	     -1.59105923	     -1.97541471	     -1.02591916	     -6.53336406	      9.21708591	     36.44107305	     76.89199947	      1.21540025	    -11.38136535	     15.21713429	     30.13368929	     84.47159740
      5.95000000	     -9.58164296	     -0.70938412	      1.68652765	     -0.01384616	      1.17373133	     -0.12146546	     11.06763012	      1.27869452	     -2.48353532	     12.19534289	     11.12245792	    -10.66399380	      0.00000000	     12.57664483	      1.76010898	     -0.43294026	     12.26660684	      7.50009958	     -7.32799302	      0.00000000	     -7.32570925	     -1.52962253	     -1.96751747	     -1.00973485	     -6.51049050	      9.24593485	     36.47294909	     76.90130245	      1.22665839	    -11.40740995	     15.19626904	     30.12812382	     84.47820166
      5.96666670	     -9.56226568	     -0.70792483	      1.69779808	     -0.01440247	      1.17539406	     -0.12129005	     11.09618353	      1.26423622	     -2.48097784	     12.17444434	     11.12939348	    -10.66501345	      0.00000000	     12.56171061	      1.75988668	     -0.43319546	     12.26506727	      7.49967455	     -7.32798104	      0.00000000	     -7.31313620	     -1.52773150	     -1.97065580	     -1.01481077	     -6.51068956	      9.24837107	     36.47410196	     76.90210564	      1.22609359	    -11.40825591	     15.19483800	     30.12730672	     84.47880102
